<svg xmlns="http://www.w3.org/2000/svg" xmlns:xlink="http://www.w3.org/1999/xlink" width="100" height="100" viewBox="0 0 100 100"><g><g transform="translate(50 50) scale(0.69 0.69) rotate(0) translate(-50 -50)" style="fill:#ffffff"><svg fill="#ffffff" xmlns:x="http://ns.adobe.com/Extensibility/1.0/" xmlns:i="http://ns.adobe.com/AdobeIllustrator/10.0/" xmlns:graph="http://ns.adobe.com/Graphs/1.0/" xmlns="http://www.w3.org/2000/svg" xmlns:xlink="http://www.w3.org/1999/xlink" version="1.1" x="0px" y="0px" viewBox="0 0 100 100" style="enable-background:new 0 0 100 100;" xml:space="preserve"><g><g i:extraneous="self"><g><path d="M50,37.9c2.6,0,4.9,0.8,6.9,2.1c2.3-1.7,6.1-2.4,9.5-4.8c9-6.6-0.1-21.9-22.7-17.9c-16.5,2.9-9.6,17.5-3.8,26     C42.1,40,45.8,37.9,50,37.9z"></path><path d="M37.9,50c0-0.3,0-0.7,0-1c-2.7-1-5.2-4.2-9.2-5.9c-10.1-4.5-18.9,11-4.2,28.6c10.7,12.8,19.8-0.4,24.4-9.6     C42.8,61.6,37.9,56.3,37.9,50z"></path><path d="M60.9,44.7c0.8,1.6,1.2,3.4,1.2,5.3c0,4.9-2.9,9.2-7.2,11.1c0.4,2.8-1,6.5-0.5,10.7c1.2,11,19,10.9,26.9-10.7     C87,45.4,71.2,44.1,60.9,44.7z"></path><ellipse cx="50" cy="50" rx="7.8" ry="7.7"></ellipse><path d="M50,2.5C23.8,2.5,2.5,23.8,2.5,50S23.8,97.5,50,97.5S97.5,76.2,97.5,50S76.2,2.5,50,2.5z M50,88.7     c-21.4,0-38.7-17.4-38.7-38.7S28.6,11.3,50,11.3S88.7,28.6,88.7,50S71.4,88.7,50,88.7z"></path></g></g></g></svg></g></g></svg>