<svg xmlns="http://www.w3.org/2000/svg" xmlns:xlink="http://www.w3.org/1999/xlink" width="100" height="100" viewBox="0 0 100 100"><g><g transform="translate(50 50) scale(0.69 0.69) rotate(0) translate(-50 -50)" style="fill:#ffffff"><svg fill="#ffffff" xmlns="http://www.w3.org/2000/svg" xmlns:xlink="http://www.w3.org/1999/xlink" version="1.1" x="0px" y="0px" viewBox="0 0 100 100" enable-background="new 0 0 100 100" xml:space="preserve"><path d="M11.5,51.5c0.8,20.5,17.7,37,38.5,37c12.1,0,23.2-5.5,30.6-15.1L74,66.8L73.9,67C68.4,74.7,59.5,79.3,50,79.3  c-15.6,0-28.5-12.3-29.3-27.8l5,5l6.5-6.5L16.1,33.9L0,50l6.5,6.5L11.5,51.5z"></path><path d="M88.5,48.5c-0.8-20.5-17.7-37-38.5-37c-12.1,0-23.2,5.5-30.6,15.1l6.6,6.6l0.1-0.2c5.5-7.7,14.4-12.3,23.9-12.3  c15.6,0,28.5,12.3,29.3,27.8l-5-5L67.8,50l16.1,16.1L100,50l-6.5-6.5L88.5,48.5z"></path></svg></g></g></svg>