<svg xmlns="http://www.w3.org/2000/svg" xmlns:xlink="http://www.w3.org/1999/xlink" width="100" height="100" viewBox="0 0 100 100"><g><g transform="translate(50 50) scale(0.69 0.69) rotate(0) translate(-50 -50)" style="fill:#ffffff"><svg fill="#ffffff" xmlns="http://www.w3.org/2000/svg" xmlns:xlink="http://www.w3.org/1999/xlink" version="1.1" x="0px" y="0px" viewBox="0 0 16 16" style="enable-background:new 0 0 16 16;" xml:space="preserve"><g><g><path d="M8,0C3.582,0,0,3.582,0,8s3.582,8,8,8s8-3.582,8-8S12.418,0,8,0z M8,14c-3.309,0-6-2.691-6-6s2.691-6,6-6s6,2.691,6,6    S11.309,14,8,14z"></path><polygon points="9,7 9,4 7,4 7,9 8,9 9,9 12,9 12,7   "></polygon></g><rect style="" width="16" height="16" fill="none"></rect></g></svg></g></g></svg>