<svg xmlns="http://www.w3.org/2000/svg" xmlns:xlink="http://www.w3.org/1999/xlink" width="100" height="100" viewBox="0 0 100 100"><g><g transform="translate(50 50) scale(0.69 0.69) rotate(0) translate(-50 -50)" style="fill:#ffffff"><svg fill="#ffffff" xmlns:x="http://ns.adobe.com/Extensibility/1.0/" xmlns:i="http://ns.adobe.com/AdobeIllustrator/10.0/" xmlns:graph="http://ns.adobe.com/Graphs/1.0/" xmlns="http://www.w3.org/2000/svg" xmlns:xlink="http://www.w3.org/1999/xlink" version="1.1" x="0px" y="0px" viewBox="0 0 100 100" style="enable-background:new 0 0 100 100;" xml:space="preserve"><g><g i:extraneous="self"><g><path d="M12,45.7l5.2-6c2-2.3,5-3.7,8-3.7h33.9L56.9,47c-0.6,2.8,2.6,4.8,4.9,3.1l28.3-21c1.7-1.2,1.7-3.8,0-5l-28.3-21     c-2.3-1.7-5.5,0.3-4.9,3.1l2.2,10.9H24.5c-8.8,0-15.9,7.1-15.9,15.9v11.4C8.6,46.2,10.8,47.1,12,45.7z"></path><path d="M88.8,51c-1.8-0.7-3.7-0.2-5,1.3L79,57.9c-1.4,1.6-3.4,2.5-5.6,2.5H44.7l1.4-7.1c0.5-2.3-0.5-4.6-2.5-5.9     c-2-1.3-4.5-1.2-6.4,0.2L10.5,67.5c-1.4,1.1-2.3,2.7-2.3,4.5s0.8,3.5,2.3,4.5l26.7,19.8c1,0.7,2.2,1.1,3.4,1.1c1,0,2.1-0.3,3-0.9     c2-1.3,3-3.6,2.5-5.9l-1.4-7.1H74c9.8,0,17.7-7.9,17.7-17.7V55.2C91.8,53.3,90.6,51.6,88.8,51z M86.4,65.9     c0,6.8-5.5,12.3-12.3,12.3H41.4c-0.8,0-1.6,0.4-2.1,1c-0.5,0.6-0.7,1.4-0.6,2.2l2.1,10.3c0,0.1,0,0.2-0.1,0.3     c-0.2,0.1-0.2,0-0.3,0L13.7,72.2c0,0-0.1-0.1-0.1-0.2c0-0.1,0.1-0.2,0.1-0.2L40.4,52c0.1,0,0.1-0.1,0.3,0     c0.2,0.1,0.1,0.2,0.1,0.3l-2.1,10.3c-0.2,0.8,0,1.6,0.6,2.2c0.5,0.6,1.3,1,2.1,1h32c3.7,0,7.2-1.6,9.6-4.4l3.3-3.8V65.9z"></path></g></g></g></svg></g></g></svg>