<svg xmlns="http://www.w3.org/2000/svg" xmlns:xlink="http://www.w3.org/1999/xlink" width="100" height="100" viewBox="0 0 100 100"><g><g transform="translate(50 50) scale(0.69 0.69) rotate(0) translate(-50 -50)" style="fill:#ffffff"><svg fill="#ffffff" xmlns="http://www.w3.org/2000/svg" data-name="Layer 1" viewBox="0 0 32 32" x="0px" y="0px"><title>fintech target business dart market</title><path d="M17,13.59V12H15v4a1,1,0,0,0,1,1h4V15H18.41l8-8H30V5H27V2H25V5.59Z"></path><path d="M28.84,8.46A1,1,0,0,0,28.11,8a1,1,0,0,0-.81.29l-3,3a1,1,0,0,0-.18,1.17A6.51,6.51,0,0,1,25,16a9,9,0,1,1-9-9,6.51,6.51,0,0,1,3.54.89,1,1,0,0,0,1.17-.18l3-3a1,1,0,0,0-.17-1.55A13,13,0,0,0,16,1,15,15,0,1,0,31,16,13,13,0,0,0,28.84,8.46Z"></path></svg></g></g></svg>