<svg xmlns="http://www.w3.org/2000/svg" xmlns:xlink="http://www.w3.org/1999/xlink" width="100" height="100" viewBox="0 0 100 100"><g><g transform="translate(50 50) scale(0.69 0.69) rotate(0) translate(-50 -50)" style="fill:#ffffff"><svg fill="#ffffff" xmlns="http://www.w3.org/2000/svg" xmlns:xlink="http://www.w3.org/1999/xlink" version="1.1" x="0px" y="0px" viewBox="0 0 100 100" enable-background="new 0 0 100 100" xml:space="preserve"><g><g><path d="M91.667,46.667h-5.158c-1.592-17.562-15.612-31.583-33.176-33.175V8.333C53.333,6.493,51.841,5,50,5    s-3.333,1.493-3.333,3.333v5.158c-17.562,1.592-31.583,15.614-33.175,33.175H8.333C6.493,46.667,5,48.159,5,50    s1.493,3.333,3.333,3.333h5.158c1.592,17.563,15.614,31.584,33.175,33.176v5.158C46.667,93.508,48.159,95,50,95    s3.333-1.492,3.333-3.333v-5.158c17.563-1.592,31.584-15.612,33.176-33.176h5.158C93.508,53.333,95,51.841,95,50    S93.508,46.667,91.667,46.667z M75,53.333h4.803c-1.543,13.882-12.588,24.927-26.47,26.47V75c0-1.841-1.492-3.333-3.333-3.333    S46.667,73.159,46.667,75v4.803c-13.882-1.543-24.927-12.588-26.47-26.47H25c1.841,0,3.333-1.492,3.333-3.333    S26.841,46.667,25,46.667h-4.803c1.543-13.882,12.588-24.927,26.47-26.47V25c0,1.841,1.493,3.333,3.333,3.333    S53.333,26.84,53.333,25v-4.803c13.882,1.543,24.927,12.588,26.47,26.47H75c-1.841,0-3.333,1.493-3.333,3.333    S73.159,53.333,75,53.333z M50,38.333c-6.433,0-11.667,5.233-11.667,11.667c0,6.434,5.233,11.667,11.667,11.667    c6.434,0,11.667-5.233,11.667-11.667C61.667,43.567,56.434,38.333,50,38.333z M50,55c-2.757,0-5-2.243-5-5s2.243-5,5-5    s5,2.243,5,5S52.757,55,50,55z"></path></g></g></svg></g></g></svg>