<svg xmlns="http://www.w3.org/2000/svg" xmlns:xlink="http://www.w3.org/1999/xlink" width="100" height="100" viewBox="0 0 100 100"><g><g transform="translate(50 50) scale(0.69 0.69) rotate(0) translate(-50 -50)" style="fill:#ffffff"><svg fill="#ffffff" xmlns:x="http://ns.adobe.com/Extensibility/1.0/" xmlns:i="http://ns.adobe.com/AdobeIllustrator/10.0/" xmlns:graph="http://ns.adobe.com/Graphs/1.0/" xmlns="http://www.w3.org/2000/svg" xmlns:xlink="http://www.w3.org/1999/xlink" version="1.1" x="0px" y="0px" viewBox="0 0 64 64" enable-background="new 0 0 64 64" xml:space="preserve"><metadata><sfw xmlns="http://ns.adobe.com/SaveForWeb/1.0/"><slices></slices><sliceSourceBounds y="-8160" x="-8165" width="16389" height="16384" bottomLeftOrigin="true"></sliceSourceBounds></sfw></metadata><g><g><path d="M58,19h-7v-0.5c0-1.93-1.57-3.5-3.5-3.5h-3c-1.93,0-3.5,1.57-3.5,3.5V21h-2v-2.5c0-1.93-1.57-3.5-3.5-3.5h-3    c-1.93,0-3.5,1.57-3.5,3.5V21h-2v-2.5c0-1.93-1.57-3.5-3.5-3.5h-3c-1.93,0-3.5,1.57-3.5,3.5V21h-2v-2.5c0-1.93-1.57-3.5-3.5-3.5    h-3C6.57,15,5,16.57,5,18.5v37C5,57.43,6.57,59,8.5,59h3c1.93,0,3.5-1.57,3.5-3.5V51h2v4.5c0,1.93,1.57,3.5,3.5,3.5h3    c1.93,0,3.5-1.57,3.5-3.5V51h2v4.5c0,1.93,1.57,3.5,3.5,3.5h3c1.93,0,3.5-1.57,3.5-3.5V51h2v4.5c0,1.93,1.57,3.5,3.5,3.5h3    c1.93,0,3.5-1.57,3.5-3.5V25h7c0.553,0,1-0.448,1-1v-4C59,19.448,58.553,19,58,19z M13,55.5c0,0.827-0.673,1.5-1.5,1.5h-3    C7.673,57,7,56.327,7,55.5v-37C7,17.673,7.673,17,8.5,17h3c0.827,0,1.5,0.673,1.5,1.5V55.5z M15,49V23h2v26H15z M25,55.5    c0,0.827-0.673,1.5-1.5,1.5h-3c-0.827,0-1.5-0.673-1.5-1.5v-37c0-0.827,0.673-1.5,1.5-1.5h3c0.827,0,1.5,0.673,1.5,1.5V55.5z     M27,49V23h2v26H27z M37,55.5c0,0.827-0.673,1.5-1.5,1.5h-3c-0.827,0-1.5-0.673-1.5-1.5v-37c0-0.827,0.673-1.5,1.5-1.5h3    c0.827,0,1.5,0.673,1.5,1.5V55.5z M39,49V23h2v26H39z M49,55.5c0,0.827-0.673,1.5-1.5,1.5h-3c-0.827,0-1.5-0.673-1.5-1.5v-37    c0-0.827,0.673-1.5,1.5-1.5h3c0.827,0,1.5,0.673,1.5,1.5V20v4V55.5z M57,23h-6v-2h6V23z"></path><path d="M20.76,12c0,0.552,0.448,1,1,1s1-0.448,1-1c0-0.272,0.042-0.359,0.142-0.567c0.143-0.298,0.339-0.706,0.339-1.434    s-0.196-1.136-0.339-1.434c-0.1-0.208-0.142-0.295-0.142-0.567c0-0.271,0.042-0.357,0.142-0.565C23.044,7.135,23.24,6.728,23.24,6    c0-0.552-0.448-1-1-1s-1,0.448-1,1c0,0.271-0.042,0.357-0.142,0.565c-0.143,0.298-0.339,0.705-0.339,1.433    c0,0.728,0.196,1.136,0.339,1.434c0.1,0.208,0.142,0.295,0.142,0.567s-0.042,0.359-0.142,0.567    C20.956,10.864,20.76,11.272,20.76,12z"></path><path d="M26.76,12c0,0.552,0.448,1,1,1s1-0.448,1-1c0-0.272,0.042-0.359,0.142-0.567c0.143-0.298,0.339-0.706,0.339-1.434    s-0.196-1.136-0.339-1.434c-0.1-0.208-0.142-0.295-0.142-0.567c0-0.271,0.042-0.357,0.142-0.565C29.044,7.135,29.24,6.728,29.24,6    c0-0.552-0.448-1-1-1s-1,0.448-1,1c0,0.271-0.042,0.357-0.142,0.565c-0.143,0.298-0.339,0.705-0.339,1.433    c0,0.728,0.196,1.136,0.339,1.434c0.1,0.208,0.142,0.295,0.142,0.567s-0.042,0.359-0.142,0.567    C26.956,10.864,26.76,11.272,26.76,12z"></path><path d="M32.76,12c0,0.552,0.447,1,1,1s1-0.448,1-1c0-0.272,0.041-0.359,0.142-0.567c0.143-0.298,0.339-0.706,0.339-1.434    s-0.196-1.136-0.339-1.434c-0.101-0.208-0.142-0.295-0.142-0.567c0-0.271,0.041-0.357,0.142-0.565    C35.044,7.135,35.24,6.728,35.24,6c0-0.552-0.447-1-1-1s-1,0.448-1,1c0,0.271-0.041,0.357-0.142,0.565    c-0.143,0.298-0.339,0.705-0.339,1.433c0,0.728,0.196,1.136,0.339,1.434c0.101,0.208,0.142,0.295,0.142,0.567    s-0.041,0.359-0.142,0.567C32.956,10.864,32.76,11.272,32.76,12z"></path></g></g></svg></g></g></svg>