<svg xmlns="http://www.w3.org/2000/svg" xmlns:xlink="http://www.w3.org/1999/xlink" width="100" height="100" viewBox="0 0 100 100"><g><g transform="translate(50 50) scale(0.69 0.69) rotate(0) translate(-50 -50)" style="fill:#ffffff"><svg fill="#ffffff" xmlns="http://www.w3.org/2000/svg" viewBox="0 0 96 96" x="0px" y="0px"><title>Artboard 22</title><path d="M71.5185,24.8069a2,2,0,0,0-3.414,1.414c0,8.4218-4.1269,14.2107-7.2617,16.6717,2.74-16.1287-1.8827-34.4957-14.1052-38.57a2.0025,2.0025,0,0,0-2.6328,1.8985c0,12.4607-7.7929,19.2575-16.0428,26.4527C21.3785,38.502,14.4665,44.5332,12.1657,53.7362,8.4177,68.7282,13.2107,79.97,26.82,88.1029a1.9981,1.9981,0,0,0,2.8651-2.5c-5.58-13.3826-1.58-29.3824,10.42-37.3823,0,12,8,12,8,24a12.4982,12.4982,0,0,0,12-8c8,4,8,16-1.2559,23.5778-.0488.0352-.3632.2735-.4082.3125a2,2,0,0,0,1.2988,3.52,1.7934,1.7934,0,0,0,.4063-.043c10.8651-2.2538,19.4958-10.785,23.0876-22.8122C87.8093,53.4549,83.3211,36.6075,71.5185,24.8069Z"></path></svg></g></g></svg>