<svg xmlns="http://www.w3.org/2000/svg" xmlns:xlink="http://www.w3.org/1999/xlink" width="100" height="100" viewBox="0 0 100 100"><g><g transform="translate(50 50) scale(0.69 0.69) rotate(0) translate(-50 -50)" style="fill:#ffffff"><svg fill="#ffffff" xmlns="http://www.w3.org/2000/svg" xmlns:xlink="http://www.w3.org/1999/xlink" version="1.1" x="0px" y="0px" viewBox="0 0 512 512" enable-background="new 0 0 512 512" xml:space="preserve"><g><path d="M256,68.5C152.4,68.5,68.5,152.4,68.5,256c0,103.6,83.9,187.5,187.5,187.5c103.6,0,187.5-83.9,187.5-187.5   C443.5,152.4,359.6,68.5,256,68.5z M256,406c-82.7,0-150-67.3-150-150s67.3-150,150-150s150,67.3,150,150S338.7,406,256,406z"></path><path d="M256,143.5c-62,0-112.5,50.5-112.5,112.5S194,368.5,256,368.5S368.5,318,368.5,256S318,143.5,256,143.5z M256,331   c-41.4,0-75-33.6-75-75s33.6-75,75-75s75,33.6,75,75S297.4,331,256,331z"></path><path d="M256,218.5c-20.7,0-37.5,16.8-37.5,37.5s16.8,37.5,37.5,37.5s37.5-16.8,37.5-37.5S276.7,218.5,256,218.5z"></path></g></svg></g></g></svg>