; NON-PLATED HOLES START AT T1
; THROUGH (PLATED) HOLES START AT T100
M48
INCH
T1C0.086614
T2C0.125984
T100C0.040000
T101C0.043307
T102C0.027992
T103C0.015748
T104C0.035000
T105C0.031497
T106C0.032000
T107C0.035433
T108C0.028444
T109C0.022334
%
T1
X046690Y000969
X001190Y022969
X046690Y022969
X001190Y000969
T2
X033690Y020469
X033690Y003469
T100
X045190Y019000
X045190Y012000
X045190Y020969
X045190Y013969
T101
X045190Y006969
X045190Y003032
X045190Y005000
T102
X001690Y012468
X001690Y017469
X001690Y009468
X030689Y010468
X001690Y010468
X001690Y015468
X001690Y013469
X001690Y005469
X030689Y011468
X001690Y011469
X001690Y016468
X001690Y008469
X001694Y007462
X001690Y014468
X001690Y006469
X030689Y012468
T103
X008190Y012469
X005690Y005469
X007190Y009469
X011690Y010469
X012190Y016469
X003690Y008469
X012190Y014469
T104
X040190Y012969
X031190Y008469
X036190Y015969
X040190Y019969
X041190Y002469
X040190Y015969
X036190Y012969
X035190Y008469
X036190Y019969
X041190Y006469
T105
X045690Y015969
X045690Y016953
X045690Y008969
X045690Y009953
T106
X041190Y018969
X041190Y012969
X041190Y019969
X041190Y013969
X036690Y007469
X041190Y020969
X036690Y008469
X041190Y011969
X036690Y009469
T107
X001690Y012469
X019190Y010469
X028190Y006469
X028190Y019469
X001690Y017469
X019190Y015469
X001690Y009469
X019190Y007469
X028190Y012469
X001690Y010469
X028190Y017469
X001690Y015469
X019190Y013469
X028190Y009469
X001690Y007469
X019190Y005469
X019190Y018469
X028190Y010469
X028190Y015469
X001690Y013469
X019190Y011469
X028190Y007469
X001690Y005469
X001690Y018469
X019190Y016469
X019190Y008469
X028190Y013469
X001690Y011469
X028190Y005469
X028190Y018469
X001690Y016469
X019190Y014469
X001690Y008469
X019190Y006469
X019190Y019469
X028190Y011469
X028190Y016469
X001690Y014469
X019190Y012469
X028190Y008469
X001690Y006469
X019190Y017469
X019190Y009469
X028190Y014469
T108
X039690Y003469
X036690Y003469
T109
X028190Y019466
X019217Y012477
X028190Y005487
X019217Y006486
X028190Y014473
X028190Y017469
X019217Y015472
X019217Y018467
X028190Y008483
X019217Y009481
X028190Y012477
X019217Y010480
X019217Y013475
X028190Y006486
X019217Y007484
X028190Y015472
X028190Y018467
X019217Y011478
X019217Y016470
X019217Y019466
X028190Y009481
X019217Y005487
X028190Y010480
X028190Y013475
X019217Y014473
X019217Y017469
X028190Y007484
X019217Y008483
X028190Y011478
X028190Y016470
T00
M30
