G04 MADE WITH FRITZING*
G04 WWW.FRITZING.ORG*
G04 DOUBLE SIDED*
G04 HOLES PLATED*
G04 CONTOUR ON CENTER OF CONTOUR VECTOR*
%ASAXBY*%
%FSLAX23Y23*%
%MOIN*%
%OFA0B0*%
%SFA1.0B1.0*%
%ADD10C,0.049370*%
%ADD11C,0.096614*%
%ADD12C,0.135984*%
%ADD13C,0.070444*%
%ADD14C,0.085000*%
%ADD15C,0.084000*%
%ADD16C,0.057829*%
%ADD17C,0.090000*%
%ADD18C,0.072992*%
%ADD19C,0.084803*%
%ADD20C,0.093307*%
%ADD21R,0.090000X0.090000*%
%ADD22R,0.072992X0.072992*%
%ADD23R,0.093307X0.093307*%
%LNMASK1*%
G90*
G70*
G54D10*
X719Y947D03*
X1219Y1647D03*
X819Y1247D03*
X1219Y1447D03*
X1169Y1047D03*
X569Y547D03*
X369Y847D03*
G54D11*
X119Y97D03*
X119Y2297D03*
X4669Y2297D03*
G54D12*
X3369Y2047D03*
X3369Y347D03*
G54D11*
X4669Y97D03*
G54D13*
X3969Y347D03*
X3669Y347D03*
G54D14*
X3619Y1597D03*
X4019Y1597D03*
G54D15*
X4119Y1897D03*
X4119Y1997D03*
X4119Y2097D03*
X4119Y1897D03*
X4119Y1997D03*
X4119Y2097D03*
G54D16*
X1922Y1747D03*
X2819Y1947D03*
X2819Y1847D03*
X2819Y1747D03*
X2819Y1647D03*
X2819Y1547D03*
X1922Y1847D03*
X1922Y1947D03*
X1922Y1647D03*
X2819Y1447D03*
X2819Y1348D03*
X2819Y1248D03*
X2819Y1148D03*
X2819Y1048D03*
X2819Y948D03*
X2819Y848D03*
X2819Y748D03*
X2819Y649D03*
X2819Y549D03*
X1922Y1248D03*
X1922Y1148D03*
X1922Y1048D03*
X1922Y948D03*
X1922Y848D03*
X1922Y748D03*
X1922Y649D03*
X1922Y549D03*
X1922Y1547D03*
X1922Y1447D03*
X1922Y1348D03*
X1922Y1747D03*
X2819Y1947D03*
X2819Y1847D03*
X2819Y1747D03*
X2819Y1647D03*
X2819Y1547D03*
X1922Y1847D03*
X1922Y1947D03*
X1922Y1647D03*
X2819Y1447D03*
X2819Y1348D03*
X2819Y1248D03*
X2819Y1148D03*
X2819Y1048D03*
X2819Y948D03*
X2819Y848D03*
X2819Y748D03*
X2819Y649D03*
X2819Y549D03*
X1922Y1248D03*
X1922Y1148D03*
X1922Y1048D03*
X1922Y948D03*
X1922Y848D03*
X1922Y748D03*
X1922Y649D03*
X1922Y549D03*
X1922Y1547D03*
X1922Y1447D03*
X1922Y1348D03*
G54D15*
X4119Y1197D03*
X4119Y1297D03*
X4119Y1397D03*
X4119Y1197D03*
X4119Y1297D03*
X4119Y1397D03*
X3669Y947D03*
X3669Y847D03*
X3669Y747D03*
X3669Y947D03*
X3669Y847D03*
X3669Y747D03*
G54D17*
X4519Y2097D03*
X4519Y1900D03*
X4519Y1397D03*
X4519Y1200D03*
G54D14*
X3519Y847D03*
X3119Y847D03*
X4019Y1297D03*
X3619Y1297D03*
X4019Y1997D03*
X3619Y1997D03*
X4119Y647D03*
X4119Y247D03*
G54D18*
X4569Y1695D03*
X4569Y1597D03*
X4569Y995D03*
X4569Y897D03*
G54D19*
X2819Y747D03*
G54D20*
X4519Y697D03*
X4519Y500D03*
X4519Y303D03*
G54D19*
X2819Y847D03*
X2819Y647D03*
X2819Y547D03*
X2819Y947D03*
X2819Y1247D03*
X2819Y1147D03*
X2819Y1047D03*
X2819Y1347D03*
X2819Y1447D03*
X2819Y1547D03*
X2819Y1747D03*
X2819Y1647D03*
X2819Y1847D03*
X2819Y1947D03*
X169Y1847D03*
X169Y1547D03*
X169Y1647D03*
X169Y1747D03*
X169Y1447D03*
X169Y1247D03*
X169Y1347D03*
X169Y1147D03*
X169Y1047D03*
X169Y947D03*
X169Y847D03*
X169Y747D03*
X169Y647D03*
X169Y547D03*
X1919Y1947D03*
X1919Y1847D03*
X1919Y1747D03*
X1919Y1647D03*
X1919Y1547D03*
X1919Y1447D03*
X1919Y1347D03*
X1919Y1247D03*
X1919Y1047D03*
X1919Y1147D03*
X1919Y947D03*
X1919Y847D03*
X1919Y747D03*
X1919Y647D03*
X1919Y547D03*
G54D21*
X4519Y2097D03*
X4519Y1397D03*
G54D22*
X4569Y1695D03*
X4569Y995D03*
G54D23*
X4519Y697D03*
G04 End of Mask1*
M02*