G04 MADE WITH FRITZING*
G04 WWW.FRITZING.ORG*
G04 DOUBLE SIDED*
G04 HOLES PLATED*
G04 CONTOUR ON CENTER OF CONTOUR VECTOR*
%ASAXBY*%
%FSLAX23Y23*%
%MOIN*%
%OFA0B0*%
%SFA1.0B1.0*%
%ADD10C,0.049370*%
%ADD11C,0.072480*%
%ADD12C,0.096614*%
%ADD13C,0.135984*%
%ADD14C,0.070444*%
%ADD15C,0.093307*%
%ADD16C,0.085000*%
%ADD17C,0.084000*%
%ADD18C,0.057829*%
%ADD19C,0.090000*%
%ADD20C,0.072992*%
%ADD21C,0.084803*%
%ADD22R,0.093307X0.093307*%
%ADD23R,0.090000X0.090000*%
%ADD24R,0.072992X0.072992*%
%ADD25R,0.001000X0.001000*%
%LNMASK0*%
G90*
G70*
G54D10*
X719Y947D03*
X1219Y1647D03*
X819Y1247D03*
G54D11*
X3069Y1247D03*
X3069Y1147D03*
X3069Y1047D03*
X169Y947D03*
X169Y1047D03*
X169Y847D03*
X169Y647D03*
X169Y547D03*
X169Y1547D03*
X169Y1647D03*
X169Y1447D03*
X169Y1347D03*
X169Y1247D03*
X169Y1147D03*
X169Y1747D03*
X169Y746D03*
G54D10*
X1219Y1447D03*
X1169Y1047D03*
X569Y547D03*
X369Y847D03*
G54D12*
X119Y97D03*
X119Y2297D03*
X4669Y2297D03*
G54D13*
X3369Y2047D03*
X3369Y347D03*
G54D12*
X4669Y97D03*
G54D14*
X3969Y347D03*
X3669Y347D03*
G54D15*
X4519Y697D03*
X4519Y500D03*
X4519Y303D03*
G54D16*
X3619Y1597D03*
X4019Y1597D03*
G54D17*
X4119Y1897D03*
X4119Y1997D03*
X4119Y2097D03*
G54D18*
X1922Y1747D03*
X2819Y1947D03*
X2819Y1847D03*
X2819Y1747D03*
X2819Y1647D03*
X2819Y1547D03*
X1922Y1847D03*
X1922Y1947D03*
X1922Y1647D03*
X2819Y1447D03*
X2819Y1348D03*
X2819Y1248D03*
X2819Y1148D03*
X2819Y1048D03*
X2819Y948D03*
X2819Y848D03*
X2819Y748D03*
X2819Y649D03*
X2819Y549D03*
X1922Y1248D03*
X1922Y1148D03*
X1922Y1048D03*
X1922Y948D03*
X1922Y848D03*
X1922Y748D03*
X1922Y649D03*
X1922Y549D03*
X1922Y1547D03*
X1922Y1447D03*
X1922Y1348D03*
X1922Y1747D03*
X2819Y1947D03*
X2819Y1847D03*
X2819Y1747D03*
X2819Y1647D03*
X2819Y1547D03*
X1922Y1847D03*
X1922Y1947D03*
X1922Y1647D03*
X2819Y1447D03*
X2819Y1348D03*
X2819Y1248D03*
X2819Y1148D03*
X2819Y1048D03*
X2819Y948D03*
X2819Y848D03*
X2819Y748D03*
X2819Y649D03*
X2819Y549D03*
X1922Y1248D03*
X1922Y1148D03*
X1922Y1048D03*
X1922Y948D03*
X1922Y848D03*
X1922Y748D03*
X1922Y649D03*
X1922Y549D03*
X1922Y1547D03*
X1922Y1447D03*
X1922Y1348D03*
G54D17*
X4119Y1197D03*
X4119Y1297D03*
X4119Y1397D03*
X3669Y947D03*
X3669Y847D03*
X3669Y747D03*
G54D19*
X4519Y2097D03*
X4519Y1900D03*
X4519Y1397D03*
X4519Y1200D03*
G54D16*
X3519Y847D03*
X3119Y847D03*
X4019Y1297D03*
X3619Y1297D03*
X4019Y1997D03*
X3619Y1997D03*
X4119Y647D03*
X4119Y247D03*
G54D20*
X4569Y1695D03*
X4569Y1597D03*
X4569Y995D03*
X4569Y897D03*
G54D21*
X2819Y747D03*
X2819Y1247D03*
X2819Y947D03*
X2819Y547D03*
X2819Y647D03*
X2819Y847D03*
X2819Y1147D03*
X2819Y1047D03*
X1919Y1547D03*
X1919Y1647D03*
X1919Y547D03*
X1919Y1747D03*
X1919Y1847D03*
X169Y647D03*
X1919Y1947D03*
X169Y547D03*
X1919Y1447D03*
X1919Y647D03*
X1919Y747D03*
X1919Y1347D03*
X1919Y847D03*
X1919Y947D03*
X1919Y1247D03*
X1919Y1147D03*
X1919Y1047D03*
X169Y747D03*
X2819Y1947D03*
X2819Y1847D03*
X169Y847D03*
X2819Y1647D03*
X2819Y1747D03*
X2819Y1347D03*
X2819Y1547D03*
X2819Y1447D03*
X169Y1847D03*
X169Y1547D03*
X169Y1147D03*
X169Y947D03*
X169Y1047D03*
X169Y1347D03*
X169Y1247D03*
X169Y1647D03*
X169Y1447D03*
X169Y1747D03*
G54D22*
X4519Y697D03*
G54D23*
X4519Y2097D03*
X4519Y1397D03*
G54D24*
X4569Y1695D03*
X4569Y995D03*
G54D25*
X123Y1893D02*
X214Y1893D01*
X123Y1892D02*
X214Y1892D01*
X123Y1891D02*
X214Y1891D01*
X123Y1890D02*
X214Y1890D01*
X123Y1889D02*
X214Y1889D01*
X123Y1888D02*
X214Y1888D01*
X123Y1887D02*
X214Y1887D01*
X123Y1886D02*
X214Y1886D01*
X123Y1885D02*
X214Y1885D01*
X123Y1884D02*
X214Y1884D01*
X123Y1883D02*
X214Y1883D01*
X123Y1882D02*
X214Y1882D01*
X123Y1881D02*
X214Y1881D01*
X123Y1880D02*
X214Y1880D01*
X123Y1879D02*
X214Y1879D01*
X123Y1878D02*
X214Y1878D01*
X123Y1877D02*
X214Y1877D01*
X123Y1876D02*
X214Y1876D01*
X123Y1875D02*
X214Y1875D01*
X123Y1874D02*
X214Y1874D01*
X123Y1873D02*
X214Y1873D01*
X123Y1872D02*
X214Y1872D01*
X123Y1871D02*
X214Y1871D01*
X123Y1870D02*
X214Y1870D01*
X123Y1869D02*
X214Y1869D01*
X123Y1868D02*
X214Y1868D01*
X123Y1867D02*
X214Y1867D01*
X123Y1866D02*
X214Y1866D01*
X123Y1865D02*
X214Y1865D01*
X123Y1864D02*
X214Y1864D01*
X123Y1863D02*
X214Y1863D01*
X123Y1862D02*
X214Y1862D01*
X123Y1861D02*
X214Y1861D01*
X123Y1860D02*
X214Y1860D01*
X123Y1859D02*
X214Y1859D01*
X123Y1858D02*
X214Y1858D01*
X123Y1857D02*
X214Y1857D01*
X123Y1856D02*
X214Y1856D01*
X123Y1855D02*
X214Y1855D01*
X123Y1854D02*
X214Y1854D01*
X123Y1853D02*
X214Y1853D01*
X123Y1852D02*
X214Y1852D01*
X123Y1851D02*
X214Y1851D01*
X123Y1850D02*
X214Y1850D01*
X123Y1849D02*
X166Y1849D01*
X170Y1849D02*
X214Y1849D01*
X123Y1848D02*
X166Y1848D01*
X171Y1848D02*
X214Y1848D01*
X123Y1847D02*
X166Y1847D01*
X171Y1847D02*
X214Y1847D01*
X123Y1846D02*
X167Y1846D01*
X170Y1846D02*
X214Y1846D01*
X123Y1845D02*
X214Y1845D01*
X123Y1844D02*
X214Y1844D01*
X123Y1843D02*
X214Y1843D01*
X123Y1842D02*
X214Y1842D01*
X123Y1841D02*
X214Y1841D01*
X123Y1840D02*
X214Y1840D01*
X123Y1839D02*
X214Y1839D01*
X123Y1838D02*
X214Y1838D01*
X123Y1837D02*
X214Y1837D01*
X123Y1836D02*
X214Y1836D01*
X123Y1835D02*
X214Y1835D01*
X123Y1834D02*
X214Y1834D01*
X123Y1833D02*
X214Y1833D01*
X123Y1832D02*
X214Y1832D01*
X123Y1831D02*
X214Y1831D01*
X123Y1830D02*
X214Y1830D01*
X123Y1829D02*
X214Y1829D01*
X123Y1828D02*
X214Y1828D01*
X123Y1827D02*
X214Y1827D01*
X123Y1826D02*
X214Y1826D01*
X123Y1825D02*
X214Y1825D01*
X123Y1824D02*
X214Y1824D01*
X123Y1823D02*
X214Y1823D01*
X123Y1822D02*
X214Y1822D01*
X123Y1821D02*
X214Y1821D01*
X123Y1820D02*
X214Y1820D01*
X123Y1819D02*
X214Y1819D01*
X123Y1818D02*
X214Y1818D01*
X123Y1817D02*
X214Y1817D01*
X123Y1816D02*
X214Y1816D01*
X123Y1815D02*
X214Y1815D01*
X123Y1814D02*
X214Y1814D01*
X123Y1813D02*
X214Y1813D01*
X123Y1812D02*
X214Y1812D01*
X123Y1811D02*
X214Y1811D01*
X123Y1810D02*
X214Y1810D01*
X123Y1809D02*
X214Y1809D01*
X123Y1808D02*
X214Y1808D01*
X123Y1807D02*
X214Y1807D01*
X123Y1806D02*
X214Y1806D01*
X123Y1805D02*
X214Y1805D01*
X123Y1804D02*
X214Y1804D01*
X123Y1803D02*
X214Y1803D01*
X123Y1802D02*
X214Y1802D01*
X3023Y1393D02*
X3114Y1393D01*
X3023Y1392D02*
X3114Y1392D01*
X3023Y1391D02*
X3114Y1391D01*
X3023Y1390D02*
X3114Y1390D01*
X3023Y1389D02*
X3114Y1389D01*
X3023Y1388D02*
X3114Y1388D01*
X3023Y1387D02*
X3114Y1387D01*
X3023Y1386D02*
X3114Y1386D01*
X3023Y1385D02*
X3114Y1385D01*
X3023Y1384D02*
X3114Y1384D01*
X3023Y1383D02*
X3114Y1383D01*
X3023Y1382D02*
X3114Y1382D01*
X3023Y1381D02*
X3114Y1381D01*
X3023Y1380D02*
X3114Y1380D01*
X3023Y1379D02*
X3114Y1379D01*
X3023Y1378D02*
X3114Y1378D01*
X3023Y1377D02*
X3114Y1377D01*
X3023Y1376D02*
X3114Y1376D01*
X3023Y1375D02*
X3114Y1375D01*
X3023Y1374D02*
X3114Y1374D01*
X3023Y1373D02*
X3114Y1373D01*
X3023Y1372D02*
X3114Y1372D01*
X3023Y1371D02*
X3114Y1371D01*
X3023Y1370D02*
X3114Y1370D01*
X3023Y1369D02*
X3114Y1369D01*
X3023Y1368D02*
X3114Y1368D01*
X3023Y1367D02*
X3114Y1367D01*
X3023Y1366D02*
X3114Y1366D01*
X3023Y1365D02*
X3114Y1365D01*
X3023Y1364D02*
X3114Y1364D01*
X3023Y1363D02*
X3114Y1363D01*
X3023Y1362D02*
X3114Y1362D01*
X3023Y1361D02*
X3114Y1361D01*
X3023Y1360D02*
X3114Y1360D01*
X3023Y1359D02*
X3114Y1359D01*
X3023Y1358D02*
X3114Y1358D01*
X3023Y1357D02*
X3114Y1357D01*
X3023Y1356D02*
X3114Y1356D01*
X3023Y1355D02*
X3114Y1355D01*
X3023Y1354D02*
X3114Y1354D01*
X3023Y1353D02*
X3114Y1353D01*
X3023Y1352D02*
X3114Y1352D01*
X3023Y1351D02*
X3114Y1351D01*
X3023Y1350D02*
X3114Y1350D01*
X3023Y1349D02*
X3066Y1349D01*
X3070Y1349D02*
X3114Y1349D01*
X3023Y1348D02*
X3066Y1348D01*
X3071Y1348D02*
X3114Y1348D01*
X3023Y1347D02*
X3066Y1347D01*
X3071Y1347D02*
X3114Y1347D01*
X3023Y1346D02*
X3067Y1346D01*
X3070Y1346D02*
X3114Y1346D01*
X3023Y1345D02*
X3114Y1345D01*
X3023Y1344D02*
X3114Y1344D01*
X3023Y1343D02*
X3114Y1343D01*
X3023Y1342D02*
X3114Y1342D01*
X3023Y1341D02*
X3114Y1341D01*
X3023Y1340D02*
X3114Y1340D01*
X3023Y1339D02*
X3114Y1339D01*
X3023Y1338D02*
X3114Y1338D01*
X3023Y1337D02*
X3114Y1337D01*
X3023Y1336D02*
X3114Y1336D01*
X3023Y1335D02*
X3114Y1335D01*
X3023Y1334D02*
X3114Y1334D01*
X3023Y1333D02*
X3114Y1333D01*
X3023Y1332D02*
X3114Y1332D01*
X3023Y1331D02*
X3114Y1331D01*
X3023Y1330D02*
X3114Y1330D01*
X3023Y1329D02*
X3114Y1329D01*
X3023Y1328D02*
X3114Y1328D01*
X3023Y1327D02*
X3114Y1327D01*
X3023Y1326D02*
X3114Y1326D01*
X3023Y1325D02*
X3114Y1325D01*
X3023Y1324D02*
X3114Y1324D01*
X3023Y1323D02*
X3114Y1323D01*
X3023Y1322D02*
X3114Y1322D01*
X3023Y1321D02*
X3114Y1321D01*
X3023Y1320D02*
X3114Y1320D01*
X3023Y1319D02*
X3114Y1319D01*
X3023Y1318D02*
X3114Y1318D01*
X3023Y1317D02*
X3114Y1317D01*
X3023Y1316D02*
X3114Y1316D01*
X3023Y1315D02*
X3114Y1315D01*
X3023Y1314D02*
X3114Y1314D01*
X3023Y1313D02*
X3114Y1313D01*
X3023Y1312D02*
X3114Y1312D01*
X3023Y1311D02*
X3114Y1311D01*
X3023Y1310D02*
X3114Y1310D01*
X3023Y1309D02*
X3114Y1309D01*
X3023Y1308D02*
X3114Y1308D01*
X3023Y1307D02*
X3114Y1307D01*
X3023Y1306D02*
X3114Y1306D01*
X3023Y1305D02*
X3114Y1305D01*
X3023Y1304D02*
X3114Y1304D01*
X3023Y1303D02*
X3114Y1303D01*
X3023Y1302D02*
X3114Y1302D01*
D02*
G04 End of Mask0*
M02*